<svg id="Laag_1" data-name="Laag 1" xmlns="http://www.w3.org/2000/svg" viewBox="0 0 412.52 147.1"><defs><style>.cls-1{fill:#1d1d1b;}</style></defs><title>voornaam</title><path class="cls-1" d="M19,52,16.39,48.1,22.45,44a113.24,113.24,0,0,1,12.46-7.79,8.79,8.79,0,0,1,3.77-1,4.3,4.3,0,0,1,3.28,2q7.21,9.09,12.13,24.53A98.39,98.39,0,0,1,59,91.66q0,1.88-.16,5.73,13.85-25.5,13.85-40.51A33.65,33.65,0,0,0,71.3,48.6a38.19,38.19,0,0,1-1.48-8.2,5.41,5.41,0,0,1,1.52-3.94,5.1,5.1,0,0,1,3.81-1.56,5.63,5.63,0,0,1,4.63,2.21,9.92,9.92,0,0,1,1.76,6.31q0,10.57-4.84,26.35a169.48,169.48,0,0,1-15.2,33.93q-10.37,18.15-18.93,27T26,143.29A35.2,35.2,0,0,1,10.9,147.1q-5.41,0-8.15-2A5.84,5.84,0,0,1,0,140.3a5.31,5.31,0,0,1,2.13-4.22,8.72,8.72,0,0,1,5.74-1.76,37.75,37.75,0,0,1,7.62,1.07,39.77,39.77,0,0,0,7,1.15q5,0,10.57-4.18A44,44,0,0,0,45.2,118.68a32.44,32.44,0,0,0,4.47-16,137.56,137.56,0,0,0-3.32-27.35Q43,59.32,37,50.89q-3-4.34-6.47-4.34Q26.47,46.55,19,52Z"/><path class="cls-1" d="M127.27,33.85l5.41-1.15-6.15,20.73q-3.69,12.38-7,28.52-1.8,8.77-1.8,11.31t2,2.54q1.31,0,4.18-1.72a53.66,53.66,0,0,0,9.75-7.54l2.62,3.2q-9.34,8.52-12,10.33a44.82,44.82,0,0,1-10,5.33,17.51,17.51,0,0,1-6.06,1.15,4.56,4.56,0,0,1-3.2-1,3.71,3.71,0,0,1-1.07-2.87,12.22,12.22,0,0,1,.66-3.36L108,88.18a69.52,69.52,0,0,1-16.8,14.51q-6,3.77-11,3.77a8.59,8.59,0,0,1-7.29-3.36q-3.44-4.51-3.44-11.8,0-8.69,4.63-19.34A71.49,71.49,0,0,1,86.54,52.61a52.8,52.8,0,0,1,16.39-12.78q6.64-3.11,17-3.11a44.41,44.41,0,0,1,5.33.33ZM117.1,46.38a38.51,38.51,0,0,0-7.46-.9,21.06,21.06,0,0,0-12.87,4.06q-5.49,4.06-10.2,14.59a51.1,51.1,0,0,0-4.71,21q0,5.57,1.88,8a5.91,5.91,0,0,0,4.92,2.46q5.65,0,12.13-6.1T110.3,72Z"/><path class="cls-1" d="M170.83,35.24q7.29,0,11.27,2.83t4,6.52a5.21,5.21,0,0,1-1.68,3.85,5.6,5.6,0,0,1-4.06,1.64,5.1,5.1,0,0,1-2.7-.7,15.17,15.17,0,0,1-3.28-3.48q-4-5.33-7.95-5.33a8.17,8.17,0,0,0-5.94,2.58,8.71,8.71,0,0,0-2.58,6.42,13.92,13.92,0,0,0,1.64,6.51q1.64,3.15,8.28,10.19,9.1,9.66,9.1,18.33t-7.38,15.18q-7.38,6.51-19,6.51-9.75,0-14.5-4a12.29,12.29,0,0,1-4.75-9.79,6.6,6.6,0,0,1,1.8-4.75,5.89,5.89,0,0,1,4.43-1.88,5.6,5.6,0,0,1,3.93,1.52A4.71,4.71,0,0,1,143,91q0,.82-.11,2.13-.06,1.07-.06,1.8a5.74,5.74,0,0,0,2.29,4.59,9,9,0,0,0,6,1.89A18.67,18.67,0,0,0,159,99.86a12.23,12.23,0,0,0,7.11-10.68,11.4,11.4,0,0,0-1.76-5.89,76.34,76.34,0,0,0-7.91-9.74q-8.52-9.49-8.52-18.25,0-8,6.47-14T170.83,35.24Z"/><path class="cls-1" d="M181.74,54.09l-2.46-3.28a66.18,66.18,0,0,1,15.42-12Q202,35,206.22,35a3.91,3.91,0,0,1,2.59.74,2.56,2.56,0,0,1,.86,2,29.3,29.3,0,0,1-1.31,6.31Q206.47,51,205.74,55q19.61-20,30-20a5.35,5.35,0,0,1,4.09,1.48,6.65,6.65,0,0,1,1.39,4.67q0,3.44-2.45,11.72Q248.1,43.11,255,39T265.74,35a7,7,0,0,1,5.33,2Q273,38.93,273,43a25.14,25.14,0,0,1-.82,5.82q-.82,3.36-6,20.49-6.47,21.23-6.47,25.32,0,2.79,2.29,2.79a5.41,5.41,0,0,0,3-1,79,79,0,0,0,9.92-8.52l2.7,3q-1.72,1.39-6.47,5.74a76.58,76.58,0,0,1-9,7.38q-4.75,2.79-8,2.79a5.44,5.44,0,0,1-4.34-2.42,10.6,10.6,0,0,1-1.89-6.68A44.21,44.21,0,0,1,249,88.47q1.15-5.29,6.72-23.72,4.18-13.85,4.18-16.8,0-2.78-2.46-2.79-2,0-5.49,2a42.57,42.57,0,0,0-11.8,10.41q-3.28,4.26-5.74,13.52-5.49,20.24-8.2,33H214.6l12.21-50.07a51.75,51.75,0,0,0,1.31-6.23,2.83,2.83,0,0,0-.65-2,2.46,2.46,0,0,0-1.88-.7q-2.21,0-6.87,3.44-8.1,5.82-11.66,11.27T201,76.46l-6.3,27.7H182.89l9.26-39.09q4.1-17,4.1-18.44,0-1.88-1.48-1.88Q191.58,44.75,181.74,54.09Z"/><path class="cls-1" d="M271.23,54.25l-3.61-2.79q8.18-9,14.94-12.83t11.5-3.81a6.16,6.16,0,0,1,4,1.15,3.83,3.83,0,0,1,1.39,3.11q0,2.38-5.31,20.16-8.66,29.09-8.66,35.07a3.15,3.15,0,0,0,.57,1.93,1.57,1.57,0,0,0,1.23.78q2.62,0,13.44-10.16l3.2,3.11q-11.23,10.57-16.39,13.52t-8.44,3a5.91,5.91,0,0,1-4.55-1.8,7,7,0,0,1-1.68-5q0-10.24,12.29-50.07a11.75,11.75,0,0,0,.57-3.36q0-1.64-1.47-1.64a7.25,7.25,0,0,0-3.73,1.31Q278.44,47.2,271.23,54.25ZM303.43,0a5.59,5.59,0,0,1,4.18,1.68A5.91,5.91,0,0,1,309.25,6a9.15,9.15,0,0,1-2.5,6.35,7.46,7.46,0,0,1-5.61,2.75,5.42,5.42,0,0,1-4.1-1.72,6.26,6.26,0,0,1-1.64-4.51,8.92,8.92,0,0,1,2.38-6.27A7.43,7.43,0,0,1,303.43,0Z"/><path class="cls-1" d="M295.3,54.5l-2.79-2.87q10.5-10,16.73-13.34T319.91,35a4.42,4.42,0,0,1,2.71.74,2.13,2.13,0,0,1,1,1.72,14.79,14.79,0,0,1-.41,2.62L319.5,56.57a101.13,101.13,0,0,1,20.94-17.31q6.71-4.18,11-4.18a6.3,6.3,0,0,1,5,2,8.67,8.67,0,0,1,1.8,5.9,25.91,25.91,0,0,1-.74,5.74q-1.31,5.33-6.86,23.19-5.23,16.72-5.23,22.21a5.1,5.1,0,0,0,.49,2.52,1.53,1.53,0,0,0,1.39.84q2.38,0,7.46-4.59,3.6-3.28,7.21-6.06l2,3a74.51,74.51,0,0,1-15.65,13.37q-5.16,3.26-8.52,3.26A5.73,5.73,0,0,1,335,104.2q-1.72-2.25-1.72-7.33,0-7.29,9.1-36.3,2.78-10.33,2.79-12,0-2.54-3-2.54-3.28,0-8.44,3.45a51,51,0,0,0-12.87,12q-3.28,4.43-5.49,14.11l-6.64,28.64H296.53q3.44-12.31,6-23.55l7.29-31.18a14.65,14.65,0,0,0,.41-2.71q0-2.21-1.64-2.22-1.31,0-3.77,1.73A51.26,51.26,0,0,0,295.3,54.5Z"/><path class="cls-1" d="M405,83.59l2.7,3.61q-20.08,19.1-34.42,19.09-5.82,0-8.89-3.93T361.3,89.74q0-17.54,10.65-34.91,12-19.75,28.6-19.75,5.82,0,8.89,2.91a10.48,10.48,0,0,1,3.07,8,17.89,17.89,0,0,1-3.69,10.49q-3.69,5.16-13.19,10.74-4.75,2.7-20.32,9.75a51.46,51.46,0,0,0-.74,8.44q0,5.82,1.84,8.11a6.48,6.48,0,0,0,5.37,2.29,17.53,17.53,0,0,0,7.38-1.88Q394.57,91.38,405,83.59ZM376.3,71.71q13.19-5.9,19.83-12.7,4.51-4.75,4.51-9.42A8.18,8.18,0,0,0,398.79,44,6.09,6.09,0,0,0,394,41.88a9.37,9.37,0,0,0-5.9,2.29,22.72,22.72,0,0,0-6.47,9.18A82.63,82.63,0,0,0,376.3,71.71Z"/></svg>